# xmcd
#
# Track frame offsets: 
#        150
#        18062
#        39294
#        51227
#        66310
#        85185
#        110755
#        134392
#        156417
#        178820
#        197175
#        214202
#
# Disc length: 3153 seconds
#
# Revision: 2
# Processed by: cddbd v1.5.2PL0 Copyright (c) Steve Scherf et al.
# Submitted via: ExactAudioCopy v1.0b3
#
DISCID=ad0c4f0c
DTITLE=周杰倫 - Initial J
DYEAR=2005
DGENRE=Pop
TTITLE0=可愛女人
TTITLE1=黑色幽默
TTITLE2=忍者
TTITLE3=雙截棍
TTITLE4=最後的戰役
TTITLE5=以父之名
TTITLE6=東風破
TTITLE7=雙刀
TTITLE8=七里香
TTITLE9=外婆
TTITLE10=飄移
TTITLE11=一路向北
EXTD=YEAR: 2005
EXTT0=
EXTT1=
EXTT2=
EXTT3=
EXTT4=
EXTT5=
EXTT6=
EXTT7=
EXTT8=
EXTT9=
EXTT10=
EXTT11=
PLAYORDER=
